# xmcd CD database file
#
# Track frame offsets:
#	150
#	29791
#	66022
#	102889
#	132163
#	161683
#	186223
#	208606
#	238866
#	270317
#	292994
#
# Disc length: 4360 seconds
#
# Revision: 0
# Processed by: cddbd v1.5.2PL0 Copyright (c) Steve Scherf et al.
# Submitted via: CDex 1.70beta2
#
DISCID=9f11060b
DTITLE=Cedar Walton - Roots
DYEAR=1997
DGENRE=Jazz
TTITLE0=Bolivia
TTITLE1=Ojos do Rojo
TTITLE2=When Love is New
TTITLE3=I'll Let You Know
TTITLE4=Mode for Joe
TTITLE5=Blue Monterey
TTITLE6=Fantasy in D
TTITLE7=Fiesta Espanol
TTITLE8=Firm Roots
TTITLE9=Clockwise (bonus track)
TTITLE10=Firm Roots (bonus track)
EXTD=YEAR: 1997
EXTT0=
EXTT1=
EXTT2=
EXTT3=
EXTT4=
EXTT5=
EXTT6=
EXTT7=
EXTT8=
EXTT9=
EXTT10=
PLAYORDER=
